<svg width="18" height="21" viewBox="0 0 18 21" fill="none" xmlns="http://www.w3.org/2000/svg">
<path id="Vector" d="M14.596 11.2639C14.596 9.56902 15.5264 8.09047 16.9069 7.30739C16.186 6.42681 15.1018 5.63764 13.9065 5.40607C12.2767 5.08995 11.347 5.61632 10.7455 5.82732C10.1441 6.03832 9.34521 6.228 9.34521 6.228C9.34521 6.228 8.54711 6.03832 7.9449 5.82732C7.34423 5.61632 6.41452 5.08919 4.78465 5.40531C3.15479 5.72144 1.73153 7.07506 1.15304 8.28167C0.0373907 10.6103 0.496507 13.54 1.28466 15.647C2.07204 17.7548 4.15413 20.6997 5.76869 20.9366C6.91725 21.1049 7.62811 20.315 9.34521 20.1147C11.0623 20.315 11.7732 21.1049 12.9217 20.9366C14.5363 20.6997 16.6184 17.7548 17.4058 15.647C17.4249 15.5952 17.4448 15.5419 17.4639 15.4886C15.7828 14.8167 14.596 13.1782 14.596 11.2639ZM8.93736 5.02063C8.93736 5.02063 10.5343 5.23163 11.9844 3.59235C13.4344 1.95307 13.022 0.402155 13.022 0.402155C13.022 0.402155 11.425 0.191151 9.97496 1.83043C8.52492 3.46971 8.93736 5.02063 8.93736 5.02063Z" fill="black"/>
</svg>
