<svg width="22" height="22" viewBox="0 0 22 22" fill="none" xmlns="http://www.w3.org/2000/svg">
<g id="Group 13926">
<path id="Vector" d="M9.40592 21.4443C4.35259 20.5526 0.488281 16.1532 0.488281 10.8621C0.488281 4.97642 5.30381 0.160889 11.1895 0.160889C17.0751 0.160889 21.8906 4.97642 21.8906 10.8621C21.8906 16.1532 18.0263 20.5526 12.973 21.4443L12.3785 20.9687H10.0004L9.40592 21.4443Z" fill="url(#paint0_linear_1192_4537)"/>
<path id="Vector_2" d="M15.3509 13.8347L15.8265 10.8621H12.9728V8.78133C12.9728 7.94902 13.2701 7.29506 14.578 7.29506H15.9454V4.56031C15.1725 4.44141 14.3402 4.32251 13.5673 4.32251C11.1298 4.32251 9.40576 5.80878 9.40576 8.48408V10.8621H6.73047V13.8347H9.40576V21.3849C10.0003 21.5038 10.5948 21.5633 11.1893 21.5633C11.7838 21.5633 12.3783 21.5038 12.9728 21.3849V13.8347H15.3509Z" fill="white"/>
</g>
<defs>
<linearGradient id="paint0_linear_1192_4537" x1="11.1895" y1="20.8225" x2="11.1895" y2="0.160889" gradientUnits="userSpaceOnUse">
<stop stop-color="#0062E0"/>
<stop offset="1" stop-color="#19AFFF"/>
</linearGradient>
</defs>
</svg>
