<svg width="24" height="23" viewBox="0 0 24 23" fill="none" xmlns="http://www.w3.org/2000/svg">
<path id="Vector" d="M11.7987 0.62561C5.55295 0.62561 0.488281 5.66126 0.488281 11.8732C0.488281 16.8428 3.72906 21.0589 8.22309 22.5461C8.78832 22.6502 8.99589 22.3021 8.99589 22.005C8.99589 21.7369 8.98534 20.8508 8.98055 19.9109C5.83388 20.5913 5.16992 18.5839 5.16992 18.5839C4.65542 17.2838 3.91411 16.9382 3.91411 16.9382C2.88795 16.24 3.99146 16.2543 3.99146 16.2543C5.12725 16.3337 5.7253 17.4135 5.7253 17.4135C6.73407 19.133 8.37122 18.6358 9.01665 18.3485C9.11813 17.6215 9.4113 17.1253 9.73472 16.8445C7.22257 16.56 4.58162 15.5956 4.58162 11.2858C4.58162 10.0579 5.02346 9.05446 5.74704 8.26681C5.62959 7.98347 5.24248 6.83952 5.85659 5.29023C5.85659 5.29023 6.80636 4.98793 8.96777 6.44318C9.86991 6.19389 10.8375 6.06898 11.7987 6.06474C12.76 6.06898 13.7283 6.19389 14.6322 6.44318C16.791 4.98793 17.7395 5.29023 17.7395 5.29023C18.3551 6.83952 17.9678 7.98347 17.8503 8.26681C18.5755 9.05446 19.0143 10.0578 19.0143 11.2858C19.0143 15.6058 16.3684 16.5571 13.8499 16.8355C14.2555 17.1845 14.617 17.8691 14.617 18.9184C14.617 20.4233 14.6039 21.6345 14.6039 22.005C14.6039 22.3043 14.8075 22.6551 15.3809 22.5446C19.8724 21.0557 23.1091 16.8411 23.1091 11.8732C23.1091 5.66126 18.0451 0.62561 11.7987 0.62561Z" fill="#161614"/>
</svg>
