<svg width="23" height="23" viewBox="0 0 23 23" fill="none" xmlns="http://www.w3.org/2000/svg">
<g id="Group 13927">
<path id="Shape" d="M0.335938 1.72245C0.335938 0.860025 1.03507 0.160889 1.8975 0.160889H20.7744C21.6368 0.160889 22.3359 0.860026 22.3359 1.72245V20.5993C22.3359 21.4617 21.6368 22.1608 20.7744 22.1608H1.8975C1.03508 22.1608 0.335938 21.4617 0.335938 20.5993V1.72245Z" fill="#0A66C2"/>
<g id="Vector">
<path d="M5.27178 6.99326C6.32581 6.99326 7.18027 6.1388 7.18027 5.08476C7.18027 4.03073 6.32581 3.17627 5.27178 3.17627C4.21774 3.17627 3.36328 4.03073 3.36328 5.08476C3.36328 6.1388 4.21774 6.99326 5.27178 6.99326Z" fill="white"/>
<path d="M8.92813 8.40369H12.0911V9.85268C12.0911 9.85268 12.9494 8.13603 15.2848 8.13603C17.3681 8.13603 19.0938 9.16229 19.0938 12.2904V18.8867H15.8161V13.0897C15.8161 11.2444 14.8309 11.0415 14.0802 11.0415C12.5222 11.0415 12.2555 12.3853 12.2555 13.3304V18.8867H8.92813V8.40369Z" fill="white"/>
<path d="M3.60809 8.4037H6.93546V18.8867H3.60809V8.4037Z" fill="white"/>
</g>
</g>
</svg>
