<svg width="29" height="30" viewBox="0 0 29 30" fill="none" xmlns="http://www.w3.org/2000/svg">
<g id="TikTok">
<path id="vector" d="M8.87619 17.5353C8.99269 16.5707 9.38833 16.0305 10.1339 15.4769C11.2007 14.727 12.5332 15.1512 12.5332 15.1512V12.6349C12.8572 12.6266 13.1813 12.6458 13.5017 12.6922V15.9305C13.5017 15.9305 12.1695 15.5063 11.1028 16.2566C10.3576 16.8099 9.96116 17.3504 9.84506 18.315C9.84142 18.8388 9.93972 19.5236 10.3924 20.1156C10.2805 20.0582 10.1664 19.9928 10.0502 19.9194C9.05297 19.2498 8.87133 18.2452 8.87619 17.5353ZM19.0038 7.98216C18.27 7.17802 17.9925 6.36612 17.8921 5.79578H18.8153C18.8153 5.79578 18.6312 7.29123 19.9727 8.76187L19.9913 8.78165C19.6297 8.55423 19.2982 8.28579 19.0038 7.98216ZM23.4509 10.262V13.4351C23.4509 13.4351 22.2729 13.389 21.4011 13.1672C20.1839 12.857 19.4015 12.3813 19.4015 12.3813C19.4015 12.3813 18.861 12.042 18.8173 12.0184V18.5709C18.8173 18.9358 18.7174 19.8469 18.4128 20.6069C18.0151 21.601 17.4014 22.2535 17.2886 22.3869C17.2886 22.3869 16.5422 23.269 15.2254 23.863C14.0385 24.3988 12.9964 24.3852 12.6849 24.3988C12.6849 24.3988 10.8835 24.4702 9.26252 23.4167C8.91199 23.1845 8.58479 22.9215 8.28516 22.6312L8.29325 22.637C9.91464 23.6904 11.7156 23.6191 11.7156 23.6191C12.0275 23.6055 13.0696 23.6191 14.2561 23.0833C15.5717 22.4893 16.3193 21.6072 16.3193 21.6072C16.4309 21.4738 17.0475 20.8213 17.4435 19.8268C17.7473 19.0672 17.848 18.1557 17.848 17.7908V11.239C17.8917 11.2631 18.4318 11.6023 18.4318 11.6023C18.4318 11.6023 19.2146 12.0785 20.4318 12.3883C21.304 12.61 22.4816 12.6562 22.4816 12.6562V10.1697C22.8846 10.26 23.228 10.2845 23.4509 10.262Z" fill="#FD355A"/>
<path id="vector_2" d="M22.4811 10.1697V12.6554C22.4811 12.6554 21.3034 12.6093 20.4313 12.3875C19.214 12.0773 18.4312 11.6016 18.4312 11.6016C18.4312 11.6016 17.8912 11.2623 17.8475 11.2383V17.7916C17.8475 18.1564 17.7476 19.068 17.4429 19.8275C17.0453 20.8221 16.4316 21.4746 16.3187 21.608C16.3187 21.608 15.5719 22.49 14.2556 23.084C13.0691 23.6199 12.027 23.6063 11.7151 23.6199C11.7151 23.6199 9.91406 23.6912 8.29267 22.6378L8.28458 22.632C8.1134 22.4662 7.95226 22.2912 7.80197 22.1077C7.28456 21.4769 6.9674 20.7309 6.88771 20.5181C6.88757 20.5172 6.88757 20.5163 6.88771 20.5154C6.75947 20.1455 6.49005 19.2572 6.52686 18.3968C6.59199 16.8789 7.12598 15.9472 7.26717 15.7138C7.64108 15.0773 8.12741 14.5078 8.70449 14.0307C9.21374 13.6189 9.79095 13.2914 10.4125 13.0614C11.0843 12.7913 11.8038 12.6465 12.5322 12.6349V15.1512C12.5322 15.1512 11.1997 14.7286 10.1333 15.4769C9.38776 16.0305 8.99212 16.5707 8.87561 17.5353C8.87076 18.2452 9.0524 19.2498 10.0488 19.9198C10.165 19.9935 10.2791 20.0589 10.391 20.116C10.5651 20.3423 10.7769 20.5394 11.018 20.6995C11.9914 21.3156 12.8069 21.3587 13.8498 20.9585C14.5452 20.691 15.0687 20.0881 15.3114 19.42C15.4639 19.0028 15.4619 18.5829 15.4619 18.1487V5.79578H17.8891C17.9895 6.36612 18.267 7.17802 19.0008 7.98216C19.2952 8.28579 19.6267 8.55423 19.9883 8.78165C20.0951 8.89215 20.6412 9.43845 21.3423 9.77383C21.7048 9.94719 22.0869 10.08 22.4811 10.1697V10.1697Z" fill="black"/>
<path id="vector_3" d="M5.92188 19.7454V19.7473L5.9821 19.9105C5.97518 19.8915 5.9528 19.8338 5.92188 19.7454Z" fill="#33F3ED"/>
<path id="vector_4" d="M10.4103 13.0613C9.78878 13.2913 9.21157 13.6189 8.70232 14.0306C8.12505 14.5088 7.63885 15.0795 7.2654 15.7172C7.12421 15.9498 6.59022 16.8823 6.52509 18.4002C6.48828 19.2606 6.7577 20.1489 6.88594 20.5188C6.8858 20.5197 6.8858 20.5206 6.88594 20.5215C6.96685 20.7324 7.28279 21.4784 7.8002 22.1112C7.95049 22.2946 8.11163 22.4696 8.28281 22.6354C7.73434 22.2718 7.24518 21.8322 6.83133 21.3311C6.31837 20.7057 6.00202 19.9674 5.9195 19.7495C5.9194 19.748 5.9194 19.7464 5.9195 19.7449V19.7422C5.79086 19.3727 5.52062 18.484 5.55825 17.6225C5.62338 16.1045 6.15737 15.1728 6.29855 14.9394C6.67189 14.3016 7.15811 13.7309 7.73547 13.2528C8.24461 12.841 8.82185 12.5134 9.44343 12.2835C9.83115 12.1293 10.235 12.0156 10.6482 11.9442C11.2707 11.8401 11.9066 11.8311 12.5321 11.9175V12.6348C11.8029 12.6462 11.0828 12.791 10.4103 13.0613Z" fill="#33F3ED"/>
<path id="vector_5" d="M17.8904 5.79573H15.4631V18.149C15.4631 18.5833 15.4631 19.002 15.3126 19.4204C15.0675 20.088 14.546 20.691 13.851 20.9585C12.8077 21.3602 11.9922 21.3156 11.0193 20.6995C10.7778 20.5401 10.5654 20.3436 10.3906 20.1179C11.2195 20.5417 11.9614 20.5343 12.8806 20.1807C13.5752 19.9132 14.0974 19.3103 14.3418 18.6422C14.4947 18.225 14.4926 17.8051 14.4926 17.3713V5.01562H17.8443C17.8443 5.01562 17.8066 5.3227 17.8904 5.79573ZM22.4803 9.48222V10.1697C22.0868 10.0798 21.7054 9.947 21.3435 9.77378C20.6424 9.4384 20.0963 8.8921 19.9895 8.7816C20.1134 8.85958 20.242 8.93053 20.3746 8.99407C21.227 9.40196 22.0664 9.5237 22.4803 9.48222Z" fill="#33F3ED"/>
</g>
</svg>
