<svg width="25" height="22" viewBox="0 0 25 22" fill="none" xmlns="http://www.w3.org/2000/svg">
<path id="Vector" fill-rule="evenodd" clip-rule="evenodd" d="M22.4612 5.59506C22.4705 5.83513 22.4736 6.0751 22.4736 6.31516C22.4736 13.5935 17.3537 21.9959 7.99106 21.9959C5.11503 21.9959 2.44074 21.0793 0.1875 19.5188C0.585799 19.5625 0.99031 19.5953 1.40102 19.5953C3.78565 19.5953 5.98198 18.7112 7.72415 17.2272C5.49678 17.1945 3.61599 15.5904 2.96733 13.408C3.27873 13.4735 3.59941 13.5063 3.92736 13.5063C4.38981 13.5063 4.83879 13.4409 5.26916 13.31C2.93834 12.808 1.18274 10.582 1.18274 7.90854C1.18274 7.87581 1.18274 7.86483 1.18274 7.84301C1.86967 8.24675 2.65591 8.4976 3.49079 8.53034C2.12312 7.53734 1.2241 5.84602 1.2241 3.93641C1.2241 2.9325 1.47445 1.98311 1.91517 1.16471C4.42497 4.5038 8.17729 6.69715 12.4075 6.9263C12.3206 6.52255 12.2761 6.09709 12.2761 5.67152C12.2761 2.62706 14.5552 0.160889 17.3671 0.160889C18.831 0.160889 20.1531 0.826619 21.0811 1.896C22.2429 1.65593 23.3313 1.19766 24.3162 0.564762C23.9344 1.85238 23.1285 2.93245 22.0753 3.609C23.1057 3.47805 24.0886 3.18365 25 2.74717C24.3162 3.84929 23.4554 4.82031 22.4612 5.59506Z" fill="#1EA1F2"/>
</svg>
