<svg width="21" height="21" viewBox="0 0 21 21" fill="none" xmlns="http://www.w3.org/2000/svg">
<g id="WhatsApp">
<path id="Container" d="M0.339844 7.15357C0.339844 4.81815 0.339844 3.65045 0.801548 2.76163C1.19062 2.01263 1.80133 1.40193 2.55032 1.01285C3.43914 0.551147 4.60685 0.551147 6.94226 0.551147H13.4217C15.7571 0.551147 16.9248 0.551147 17.8136 1.01285C18.5626 1.40193 19.1733 2.01263 19.5624 2.76163C20.0241 3.65045 20.0241 4.81815 20.0241 7.15357V13.633C20.0241 15.9684 20.0241 17.1361 19.5624 18.0249C19.1733 18.7739 18.5626 19.3846 17.8136 19.7737C16.9248 20.2354 15.7571 20.2354 13.4217 20.2354H6.94226C4.60685 20.2354 3.43914 20.2354 2.55032 19.7737C1.80133 19.3846 1.19062 18.7739 0.801548 18.0249C0.339844 17.1361 0.339844 15.9684 0.339844 13.633V7.15357Z" fill="url(#paint0_linear_1192_4495)"/>
<path id="Vector" fillRule="evenodd" clipRule="evenodd" d="M10.7545 3.25475C12.4969 3.34038 14.1204 4.05888 15.3604 5.29975C16.6832 6.62328 17.4112 8.38262 17.4105 10.2536C17.4089 14.1145 14.2658 17.2559 10.4046 17.2559H10.4017C9.22918 17.2555 8.07708 16.9615 7.05379 16.4036L3.33984 17.3774L4.33378 13.7487C3.72069 12.6868 3.39808 11.4822 3.39859 10.248C3.40014 6.38721 6.54298 3.24609 10.4045 3.24609L10.7545 3.25475ZM7.22584 15.136L7.4385 15.2621C8.33255 15.7924 9.35735 16.0729 10.4023 16.0733H10.4046C13.6141 16.0733 16.2263 13.4624 16.2276 10.2532C16.2282 8.69806 15.6231 7.23577 14.5237 6.13567C13.4243 5.03551 11.9623 4.42929 10.4069 4.42879C7.19497 4.42879 4.58274 7.03948 4.58146 10.2484C4.58103 11.3482 4.88887 12.4192 5.47176 13.3458L5.61022 13.5661L5.02196 15.7138L7.22584 15.136ZM13.9341 11.9187C13.8904 11.8457 13.7737 11.8019 13.5986 11.7144C13.4236 11.6268 12.563 11.2035 12.4025 11.1451C12.242 11.0868 12.1253 11.0576 12.0086 11.2327C11.892 11.4078 11.5565 11.8019 11.4543 11.9187C11.3522 12.0355 11.2501 12.0501 11.0751 11.9625C10.9 11.875 10.336 11.6902 9.66736 11.0941C9.14695 10.6301 8.79563 10.0572 8.69351 9.88203C8.59142 9.7069 8.68262 9.61217 8.77025 9.52495C8.84901 9.44653 8.94533 9.32058 9.03286 9.21841C9.12039 9.11627 9.14954 9.04324 9.20791 8.92652C9.26625 8.80973 9.23707 8.70759 9.19332 8.62001C9.14954 8.53239 8.79947 7.67116 8.6536 7.32082C8.51147 6.97968 8.36716 7.02587 8.25971 7.02048C8.15773 7.01542 8.04091 7.01431 7.92423 7.01431C7.80752 7.01431 7.61787 7.05807 7.45741 7.23327C7.29695 7.40841 6.84473 7.83175 6.84473 8.6929C6.84473 9.55416 7.47201 10.3861 7.55953 10.5029C7.64706 10.6197 8.79391 12.3869 10.5499 13.1448C10.9676 13.3251 11.2937 13.4327 11.5479 13.5134C11.9673 13.6465 12.3488 13.6278 12.6505 13.5827C12.9868 13.5325 13.6862 13.1594 13.832 12.7508C13.9779 12.342 13.9779 11.9917 13.9341 11.9187Z" fill="white"/>
</g>
<defs>
<linearGradient id="paint0_linear_1192_4495" x1="10.182" y1="20.2354" x2="10.182" y2="0.551147" gradientUnits="userSpaceOnUse">
<stop stop-color="#25CF43"/>
<stop offset="1" stop-color="#61FD7D"/>
</linearGradient>
</defs>
</svg>
