<svg width="36" height="36" viewBox="0 0 36 36" fill="none" xmlns="http://www.w3.org/2000/svg">
<g id="ai-generate-variation-spark--module-application-artificial-intelligence-ai">
<path id="Union" fill-rule="evenodd" clip-rule="evenodd" d="M0.714844 2.76326C0.714844 1.38623 1.83114 0.269928 3.20817 0.269928H13.8048C15.1818 0.269928 16.2981 1.38623 16.2981 2.76326V13.3599C16.2981 14.7369 15.1818 15.8532 13.8048 15.8532H3.20817C1.83114 15.8532 0.714844 14.7369 0.714844 13.3599V2.76326ZM3.20817 19.6468C1.83114 19.6468 0.714844 20.7631 0.714844 22.1401V32.7367C0.714844 34.1138 1.83114 35.2301 3.20817 35.2301H13.8048C15.1818 35.2301 16.2981 34.1138 16.2981 32.7367V22.1401C16.2981 20.7631 15.1818 19.6468 13.8048 19.6468H3.20817ZM22.5838 19.6468C21.2068 19.6468 20.0905 20.7631 20.0905 22.1401V32.7367C20.0905 34.1138 21.2068 35.2301 22.5838 35.2301H33.1805C34.5575 35.2301 35.6738 34.1138 35.6738 32.7367V22.1401C35.6738 20.7631 34.5575 19.6468 33.1805 19.6468H22.5838Z" fill="#9EFF00"/>
<path id="Union_2" fill-rule="evenodd" clip-rule="evenodd" d="M29.5909 1.84842C29.1186 -0.222282 26.1645 -0.209368 25.7103 1.86539L25.693 1.94457L25.693 1.94464C25.6815 1.99749 25.6708 2.0468 25.6593 2.09809C25.1641 4.3157 23.3807 6.01743 21.1405 6.40716C18.9792 6.78317 18.9792 9.88584 21.1405 10.2619C23.3885 10.6529 25.1765 12.3652 25.6645 14.5942L25.7103 14.8036C26.1645 16.8784 29.1186 16.8913 29.5909 14.8206L29.6466 14.5765C30.1532 12.3555 31.9437 10.6558 34.188 10.2653C36.3532 9.88863 36.3532 6.78039 34.188 6.40371C31.9556 6.01532 30.1722 4.33149 29.6548 2.12782C29.6403 2.06619 29.627 2.00726 29.6124 1.94311L29.5909 1.84842L28.3548 2.13036L29.5909 1.84842Z" fill="#212121"/>
</g>
</svg>
