<svg width="49" height="42" viewBox="0 0 49 42" fill="none" xmlns="http://www.w3.org/2000/svg">
<g id="upload-computer--action-actions-computer-desktop-device-display-monitor-screen-upload">
<path id="Union" fill-rule="evenodd" clip-rule="evenodd" d="M20.2833 31.3344C20.5116 30.7788 21.0528 30.4161 21.6535 30.4161H27.7426C28.3432 30.4161 28.8844 30.7788 29.1128 31.3344L31.4755 37.0827H34.9037C36.131 37.0827 37.1258 38.0776 37.1258 39.3048C37.1258 40.5321 36.131 41.527 34.9037 41.527H14.4878C13.2605 41.527 12.2656 40.5321 12.2656 39.3048C12.2656 38.0776 13.2605 37.0827 14.4878 37.0827H17.9206L20.2833 31.3344Z" fill="#212121"/>
<path id="Subtract" fill-rule="evenodd" clip-rule="evenodd" d="M32.5042 13.5221H32.3583V19.32C32.3583 23.0017 28.9306 25.9864 24.7023 25.9864C20.474 25.9864 17.0463 23.0017 17.0463 19.32V13.5221H16.9004C11.5954 13.5221 8.93857 7.9371 12.6898 4.67072L16.2821 1.54272H5.8453C3.7489 1.54272 1.32812 3.10339 1.32812 5.859V28.3365C1.32812 31.0921 3.7489 32.6527 5.8453 32.6527H43.5685C45.6649 32.6527 48.0857 31.0921 48.0857 28.3365V5.859C48.0857 3.10339 45.6649 1.54272 43.5685 1.54272H33.1225L36.7148 4.67072C40.466 7.93709 37.8093 13.5221 32.5042 13.5221Z" fill="#9EFF00"/>
<g id="Vector 1267">
<path d="M25.9128 0.496033L33.7147 7.28955C34.7865 8.2228 34.0274 9.81851 32.5117 9.81851H28.1124L28.1124 19.32C28.1124 20.9563 26.589 22.2828 24.7098 22.2828C22.8306 22.2828 21.3071 20.9563 21.3071 19.32L21.3071 9.81851H16.9079C15.3921 9.81851 14.6331 8.2228 15.7048 7.28955L23.5068 0.496035C24.1712 -0.0824988 25.2484 -0.0825003 25.9128 0.496033Z" fill="#212121"/>
</g>
</g>
</svg>
