<svg width="36" height="36" viewBox="0 0 36 36" fill="none" xmlns="http://www.w3.org/2000/svg">
<g id="ai-cloud-spark--cloud-internet-server-network-artificial-intelligence-ai">
<path id="Subtract" fillRule="evenodd" clipRule="evenodd" d="M12.9568 2.05293C15.135 0.690484 17.7144 0.115928 20.2648 0.425078C22.8153 0.734228 25.1828 1.9084 26.9723 3.75178C28.6472 5.47704 29.7211 7.69088 30.0433 10.065C31.82 10.5988 33.3722 11.714 34.4456 13.2389C35.6156 14.9011 36.1356 16.9347 35.907 18.9545C35.6784 20.9744 34.7171 22.8403 33.2052 24.1989C32.4431 24.8837 31.5678 25.4157 30.6268 25.7765C30.4097 23.612 28.9496 21.5734 26.2462 21.1031C24.781 20.8482 23.6104 19.7429 23.2708 18.2967C23.2568 18.2371 23.2431 18.1765 23.2253 18.0981L23.1994 17.9838C21.9274 12.4069 13.9712 12.4417 12.748 18.0295L12.6892 18.2979C12.3643 19.7437 11.2006 20.853 9.73921 21.1072C7.19176 21.5504 5.74911 23.3873 5.41122 25.4091C4.64476 25.041 3.92477 24.5684 3.27333 23.999C1.37734 22.3415 0.217398 19.9988 0.0486927 17.4862C-0.120013 14.9736 0.716332 12.4968 2.37374 10.6008C3.19441 9.66203 4.19195 8.89406 5.30941 8.34078C6.30524 7.84771 7.37893 7.53375 8.48136 7.41212C9.36418 5.19996 10.9297 3.32091 12.9568 2.05293Z" fill="#9EFF00"/>
<path id="Union" fillRule="evenodd" clipRule="evenodd" d="M20.0761 18.6986C19.5677 16.4694 16.3874 16.4833 15.8985 18.7168L15.8782 18.8098C15.8645 18.8729 15.8515 18.9324 15.8378 18.9938C15.231 21.7112 13.0457 23.7964 10.3007 24.274C7.97787 24.6781 7.97789 28.0126 10.3007 28.4167C13.0553 28.896 15.2462 30.9941 15.8441 33.7254L15.8985 33.9738C16.3874 36.2074 19.5677 36.2213 20.0761 33.9921L20.1422 33.7025C20.7628 30.9816 22.9564 28.8992 25.7059 28.4208C28.0334 28.0159 28.0334 24.6748 25.7059 24.2699C22.971 23.794 20.7861 21.7312 20.1522 19.0314C20.1349 18.9576 20.1188 18.8865 20.1014 18.81L20.1014 18.8098L20.0761 18.6986Z" fill="#212121"/>
</g>
</svg>
