<svg width="36" height="35" viewBox="0 0 36 35" fill="none" xmlns="http://www.w3.org/2000/svg">
<g id="ai-network-spark--globe-internet-world-artificial-intelligence-ai">
<path id="Subtract" fill-rule="evenodd" clip-rule="evenodd" d="M21.3573 3.00484C20.9064 3.42856 20.3337 3.72337 19.6971 3.83413C14.5174 4.73524 14.5175 12.1708 19.6971 13.0719C20.9916 13.2971 22.0212 14.2831 22.3022 15.5666L22.3501 15.7857C23.4287 20.7128 30.4443 20.7436 31.5659 15.826L31.6242 15.5707C31.7572 14.9877 32.043 14.4667 32.4369 14.0503C32.8608 15.5001 33.0882 17.0338 33.0882 18.6205C33.0882 27.5969 25.8115 34.8736 16.8351 34.8736C7.85879 34.8736 0.582031 27.5969 0.582031 18.6205C0.582031 9.64419 7.85879 2.36743 16.8351 2.36743C18.4044 2.36743 19.9217 2.58983 21.3573 3.00484Z" fill="#9EFF00"/>
<path id="Subtract_2" fill-rule="evenodd" clip-rule="evenodd" d="M21.3583 3.00482C20.1045 2.64227 18.7883 2.42664 17.4295 2.3778C17.8093 2.96982 18.1696 3.57369 18.5101 4.18835C18.8701 4.02987 19.266 3.90926 19.698 3.83411C20.3347 3.72334 20.9073 3.42853 21.3583 3.00482ZM22.3797 15.9094C23.4393 20.2673 29.2225 20.6627 31.1169 17.0576H32.9925L33.0141 17.0578C33.0631 17.572 33.0882 18.0932 33.0882 18.6202C33.0882 19.1472 33.0632 19.6683 33.0141 20.1825L32.9925 20.1826H25.6525C25.2045 25.125 23.7631 29.9014 21.4374 34.2126C20.1599 34.589 18.817 34.8128 17.4297 34.8627C20.2431 30.4762 21.9924 25.4394 22.5135 20.1826H11.1581C11.6793 25.4394 13.4286 30.4762 16.242 34.8627C14.8548 34.8129 13.512 34.5894 12.2346 34.2131C9.90865 29.9018 8.46716 25.1252 8.01913 20.1826H0.6781L0.656142 20.1825C0.607112 19.6683 0.582031 19.1472 0.582031 18.6202C0.582031 18.0932 0.60712 17.572 0.656166 17.0578L0.6781 17.0576H8.01918C8.46728 12.1151 9.90881 7.33857 12.2347 3.02735C13.5122 2.65107 14.855 2.42749 16.2422 2.37775C13.4288 6.76416 11.6794 11.8009 11.1582 17.0576H22.5135C22.4754 16.6736 22.4308 16.2909 22.3797 15.9094Z" fill="#212121"/>
<path id="Union" fill-rule="evenodd" clip-rule="evenodd" d="M28.9168 1.68441C28.4409 -0.402342 25.4638 -0.389328 25.0061 1.7015L24.9881 1.78394C24.9761 1.83941 24.9648 1.89136 24.9527 1.94527C24.4279 4.29546 22.5379 6.09892 20.1638 6.51195C17.9871 6.89064 17.9871 10.0154 20.1638 10.3941C22.5462 10.8086 24.4411 12.6232 24.9582 14.9854L25.0061 15.2045C25.4638 17.2954 28.4409 17.3084 28.9168 15.2216L28.9751 14.9663C29.5119 12.6127 31.4093 10.8115 33.7876 10.3977C35.9684 10.0183 35.9684 6.88773 33.7876 6.50833C31.4219 6.09677 29.532 4.31241 28.9837 1.97718C28.9686 1.91257 28.9545 1.85061 28.9393 1.78351L28.9392 1.78306L28.9168 1.68441Z" fill="#212121"/>
</g>
</svg>
