<svg width="25" height="25" viewBox="0 0 25 25" fill="none" xmlns="http://www.w3.org/2000/svg">
<g id="credit-card-1--credit-pay-payment-debit-card-finance-plastic-money-atm">
<path id="Union" d="M0 8.92859V19.1964C0 20.6758 1.19924 21.875 2.67857 21.875H22.3214C23.8008 21.875 25 20.6758 25 19.1964V8.92859H0Z" fill="#9EFF00"/>
<path id="Union_2" fillRule="evenodd" clipRule="evenodd" d="M2.67857 3.125C1.19924 3.125 0 4.32424 0 5.80357V8.92857H25V5.80357C25 4.32424 23.8008 3.125 22.3214 3.125H2.67857ZM16.9643 15.4018C16.3479 15.4018 15.8482 15.9015 15.8482 16.5179C15.8482 17.1342 16.3479 17.6339 16.9643 17.6339H19.6429C20.2592 17.6339 20.7589 17.1342 20.7589 16.5179C20.7589 15.9015 20.2592 15.4018 19.6429 15.4018H16.9643Z" fill="#212121"/>
</g>
</svg>
