<svg width="25" height="26" viewBox="0 0 25 26" fill="none" xmlns="http://www.w3.org/2000/svg">
<g id="dollar-coin--accounting-billing-payment-cash-coin-currency-money-finance">
<path id="Vector" d="M12.25 25.5C19.0155 25.5 24.5 20.0155 24.5 13.25C24.5 6.48451 19.0155 1 12.25 1C5.48451 1 0 6.48451 0 13.25C0 20.0155 5.48451 25.5 12.25 25.5Z" fill="#9EFF00"/>
<path id="Union" fillRule="evenodd" clipRule="evenodd" d="M12.2461 5.9375C12.7984 5.9375 13.2461 6.38522 13.2461 6.9375V8.13616C14.082 8.20598 14.8269 8.59898 15.3535 9.18725C15.6272 9.49314 15.8434 9.85311 15.9837 10.2501C16.1677 10.7708 15.8948 11.3421 15.3741 11.5262C14.8534 11.7102 14.2821 11.4373 14.098 10.9166C14.0463 10.7701 13.966 10.636 13.8632 10.5211C13.6443 10.2765 13.3294 10.125 12.9778 10.125H11.2847C10.7585 10.125 10.332 10.5515 10.332 11.0776C10.332 11.5253 10.6437 11.9126 11.0811 12.0082L13.659 12.5722C15.1227 12.8923 16.1653 14.1891 16.1653 15.6867C16.1653 17.3563 14.8814 18.7275 13.2461 18.8638V20.062C13.2461 20.6143 12.7984 21.062 12.2461 21.062C11.6938 21.062 11.2461 20.6143 11.2461 20.062V18.8634C9.97699 18.7556 8.92178 17.9045 8.51366 16.7499C8.32962 16.2292 8.60254 15.6578 9.12326 15.4738C9.64397 15.2897 10.2153 15.5627 10.3993 16.0834C10.5628 16.5459 11.004 16.8749 11.5195 16.8749H12.2164C12.2263 16.8747 12.2362 16.8745 12.2461 16.8745C12.256 16.8745 12.2659 16.8747 12.2758 16.8749H12.9778C13.6332 16.8749 14.1653 16.343 14.1653 15.6867C14.1653 15.1283 13.7764 14.6451 13.2316 14.526L10.6537 13.962C9.29819 13.6655 8.33203 12.4652 8.33203 11.0776C8.33203 9.45981 9.63318 8.14589 11.2461 8.12525V6.9375C11.2461 6.38522 11.6938 5.9375 12.2461 5.9375Z" fill="#212121"/>
</g>
</svg>
