<svg width="35" height="35" viewBox="0 0 35 35" fill="none" xmlns="http://www.w3.org/2000/svg">
<g id="ai-upscale-spark--magnifier-zoom-view-find-search-ai">
<path id="Union" d="M16.25 0C7.27537 0 0 7.27537 0 16.25C0 25.2246 7.27537 32.5 16.25 32.5C25.2246 32.5 32.5 25.2246 32.5 16.25C32.5 7.27537 25.2246 0 16.25 0Z" fill="#9EFF00"/>
<path id="Union_2" fillRule="evenodd" clipRule="evenodd" d="M3.75 16.25C3.75 9.34644 9.34644 3.75 16.25 3.75C23.1536 3.75 28.75 9.34644 28.75 16.25C28.75 23.1536 23.1536 28.75 16.25 28.75C9.34644 28.75 3.75 23.1536 3.75 16.25ZM16.25 0C7.27537 0 0 7.27537 0 16.25C0 25.2246 7.27537 32.5 16.25 32.5C19.8353 32.5 23.1493 31.3389 25.8367 29.3722L30.7328 34.2683C31.7091 35.2446 33.292 35.2446 34.2683 34.2682C35.2446 33.2919 35.2446 31.709 34.2683 30.7327L29.3723 25.8367C31.3389 23.1493 32.5 19.8353 32.5 16.25C32.5 7.27537 25.2246 0 16.25 0Z" fill="#212121"/>
<path id="Union_3" fillRule="evenodd" clipRule="evenodd" d="M18.1619 9.75132C17.6933 7.6972 14.7628 7.71001 14.3123 9.76815L14.295 9.84738L14.295 9.84751C14.2834 9.90054 14.2727 9.95007 14.2612 10.0016C13.7627 12.2335 11.9678 13.9462 9.71319 14.3385C7.56955 14.7114 7.56957 17.7887 9.71319 18.1616C11.9757 18.5552 13.7752 20.2785 14.2663 22.5219L14.3123 22.7319C14.7628 24.79 17.6933 24.8029 18.1619 22.7487L18.2177 22.504C18.7275 20.2687 20.5295 18.558 22.7883 18.1651C24.9358 17.7915 24.9358 14.7086 22.7883 14.335C20.5415 13.9441 18.7466 12.2494 18.2259 10.0316C18.2114 9.96977 18.198 9.91061 18.1834 9.8463L18.1834 9.84621L18.1619 9.75132Z" fill="#212121"/>
</g>
</svg>
