<svg width="14" height="14" viewBox="0 0 14 14" fill="none" xmlns="http://www.w3.org/2000/svg">
<g id="mail-send-envelope--envelope-email-message-unopened-sealed-close">
<path id="Union" fill-rule="evenodd" clip-rule="evenodd" d="M1.5 1.25C0.671573 1.25 0 1.92157 0 2.75V11.25C0 12.0784 0.671573 12.75 1.5 12.75H12.5C13.3284 12.75 14 12.0784 14 11.25V2.75C14 1.92157 13.3284 1.25 12.5 1.25H1.5Z" fill="#9EFF00"/>
<path id="Intersect" fill-rule="evenodd" clip-rule="evenodd" d="M14 3.09204L7.38341 7.50389C7.29008 7.56389 7.15463 7.60672 7 7.60672C6.84537 7.60672 6.70992 7.56389 6.61659 7.50389L0 3.09204V4.59444L5.92657 8.54623L5.93237 8.55001C6.24703 8.75482 6.62486 8.85672 7 8.85672C7.37514 8.85672 7.753 8.75485 8.06765 8.55004L14 4.59444V3.09204Z" fill="#212121"/>
</g>
</svg>
