<svg width="246" height="239" viewBox="0 0 246 239" fill="none" xmlns="http://www.w3.org/2000/svg">
<path fill-rule="evenodd" clip-rule="evenodd" d="M140.643 124.432C133.661 124.432 128 130.093 128 137.075V137.075L128 161.725C128 168.708 133.66 174.368 140.643 174.368H233.357C240.34 174.368 246 168.708 246 161.725L246 137.075C246 130.093 240.34 124.432 233.357 124.432H140.643ZM128 198.277C128 191.294 133.661 185.634 140.643 185.634H233.357C240.34 185.634 246 191.294 246 198.277L246 222.927C246 229.909 240.34 235.57 233.357 235.57H140.643C133.66 235.57 128 229.909 128 222.927L128 198.277Z" fill="#9EFF00"/>
<path fill-rule="evenodd" clip-rule="evenodd" d="M154.736 139.919C149.499 139.919 145.254 144.164 145.254 149.401C145.254 154.638 149.499 158.883 154.736 158.883C159.973 158.883 164.218 154.638 164.218 149.401C164.218 144.164 159.973 139.919 154.736 139.919ZM145.254 210.603C145.254 205.366 149.499 201.121 154.736 201.121C159.973 201.121 164.218 205.366 164.218 210.603C164.218 215.84 159.973 220.085 154.736 220.085C149.499 220.085 145.254 215.84 145.254 210.603ZM185.948 149.401C185.948 146.492 188.307 144.133 191.216 144.133H220.716C223.625 144.133 225.984 146.492 225.984 149.401C225.984 152.311 223.625 154.669 220.716 154.669H191.216C188.307 154.669 185.948 152.311 185.948 149.401ZM191.216 205.335C188.307 205.335 185.948 207.693 185.948 210.603C185.948 213.512 188.307 215.871 191.216 215.871H220.716C223.625 215.871 225.984 213.512 225.984 210.603C225.984 207.693 223.625 205.335 220.716 205.335H191.216Z" fill="#212121"/>
<path fill-rule="evenodd" clip-rule="evenodd" d="M12.6431 124.432C5.66067 124.432 0.000273228 130.093 0.000249863 137.075V137.075L0 161.725C0 168.708 5.6604 174.368 12.6429 174.368H105.357C112.34 174.368 118 168.708 118 161.725L118 137.075C118 130.093 112.34 124.432 105.357 124.432H12.6431ZM0.000249863 198.277C0.000273228 191.294 5.66067 185.634 12.6431 185.634H105.357C112.34 185.634 118 191.294 118 198.277L118 222.927C118 229.909 112.34 235.57 105.357 235.57H12.6429C5.6604 235.57 0 229.909 0 222.927L0.000249863 198.277Z" fill="#9EFF00"/>
<path fill-rule="evenodd" clip-rule="evenodd" d="M26.736 139.919C21.4992 139.919 17.2539 144.164 17.2539 149.401C17.2539 154.638 21.4992 158.883 26.736 158.883C31.9729 158.883 36.2182 154.638 36.2182 149.401C36.2182 144.164 31.9729 139.919 26.736 139.919ZM17.2539 210.603C17.2539 205.366 21.4992 201.121 26.736 201.121C31.9729 201.121 36.2182 205.366 36.2182 210.603C36.2182 215.84 31.9729 220.085 26.736 220.085C21.4992 220.085 17.2539 215.84 17.2539 210.603ZM57.9481 149.401C57.9481 146.492 60.3066 144.133 63.216 144.133H92.716C95.6253 144.133 97.9838 146.492 97.9838 149.401C97.9838 152.311 95.6253 154.669 92.716 154.669H63.216C60.3066 154.669 57.9481 152.311 57.9481 149.401ZM63.216 205.335C60.3066 205.335 57.9481 207.693 57.9481 210.603C57.9481 213.512 60.3066 215.871 63.216 215.871H92.716C95.6253 215.871 97.9838 213.512 97.9838 210.603C97.9838 207.693 95.6253 205.335 92.716 205.335H63.216Z" fill="#212121"/>
<path fill-rule="evenodd" clip-rule="evenodd" d="M140.643 3.43237C133.661 3.43237 128 9.09275 128 16.0752V16.0752L128 40.7252C128 47.7077 133.66 53.3681 140.643 53.3681H233.357C240.34 53.3681 246 47.7077 246 40.7253L246 16.0752C246 9.09277 240.34 3.43237 233.357 3.43237H140.643ZM128 77.2767C128 70.2942 133.661 64.6339 140.643 64.6339H233.357C240.34 64.6339 246 70.2943 246 77.2767L246 101.927C246 108.909 240.34 114.57 233.357 114.57H140.643C133.66 114.57 128 108.909 128 101.927L128 77.2767Z" fill="#9EFF00"/>
<path fill-rule="evenodd" clip-rule="evenodd" d="M154.736 18.9192C149.499 18.9192 145.254 23.1645 145.254 28.4013C145.254 33.6382 149.499 37.8835 154.736 37.8835C159.973 37.8835 164.218 33.6382 164.218 28.4013C164.218 23.1645 159.973 18.9192 154.736 18.9192ZM145.254 89.6028C145.254 84.366 149.499 80.1207 154.736 80.1207C159.973 80.1207 164.218 84.366 164.218 89.6028C164.218 94.8397 159.973 99.085 154.736 99.085C149.499 99.085 145.254 94.8397 145.254 89.6028ZM185.948 28.4013C185.948 25.492 188.307 23.1335 191.216 23.1335H220.716C223.625 23.1335 225.984 25.492 225.984 28.4013C225.984 31.3107 223.625 33.6692 220.716 33.6692H191.216C188.307 33.6692 185.948 31.3107 185.948 28.4013ZM191.216 84.335C188.307 84.335 185.948 86.6935 185.948 89.6028C185.948 92.5122 188.307 94.8707 191.216 94.8707H220.716C223.625 94.8707 225.984 92.5122 225.984 89.6028C225.984 86.6935 223.625 84.335 220.716 84.335H191.216Z" fill="#212121"/>
<path fill-rule="evenodd" clip-rule="evenodd" d="M12.6431 3.43237C5.66067 3.43237 0.000273228 9.09275 0.000249863 16.0752V16.0752L0 40.7252C0 47.7077 5.6604 53.3681 12.6429 53.3681H105.357C112.34 53.3681 118 47.7077 118 40.7253L118 16.0752C118 9.09277 112.34 3.43237 105.357 3.43237H12.6431ZM0.000249863 77.2767C0.000273228 70.2942 5.66067 64.6339 12.6431 64.6339H105.357C112.34 64.6339 118 70.2943 118 77.2767L118 101.927C118 108.909 112.34 114.57 105.357 114.57H12.6429C5.6604 114.57 0 108.909 0 101.927L0.000249863 77.2767Z" fill="#9EFF00"/>
<path fill-rule="evenodd" clip-rule="evenodd" d="M26.736 18.9192C21.4992 18.9192 17.2539 23.1645 17.2539 28.4013C17.2539 33.6382 21.4992 37.8835 26.736 37.8835C31.9729 37.8835 36.2182 33.6382 36.2182 28.4013C36.2182 23.1645 31.9729 18.9192 26.736 18.9192ZM17.2539 89.6028C17.2539 84.366 21.4992 80.1207 26.736 80.1207C31.9729 80.1207 36.2182 84.366 36.2182 89.6028C36.2182 94.8397 31.9729 99.085 26.736 99.085C21.4992 99.085 17.2539 94.8397 17.2539 89.6028ZM57.9481 28.4013C57.9481 25.492 60.3066 23.1335 63.216 23.1335H92.716C95.6253 23.1335 97.9838 25.492 97.9838 28.4013C97.9838 31.3107 95.6253 33.6692 92.716 33.6692H63.216C60.3066 33.6692 57.9481 31.3107 57.9481 28.4013ZM63.216 84.335C60.3066 84.335 57.9481 86.6935 57.9481 89.6028C57.9481 92.5122 60.3066 94.8707 63.216 94.8707H92.716C95.6253 94.8707 97.9838 92.5122 97.9838 89.6028C97.9838 86.6935 95.6253 84.335 92.716 84.335H63.216Z" fill="#212121"/>
</svg>
