<svg width="37" height="36" viewBox="0 0 37 36" fill="none" xmlns="http://www.w3.org/2000/svg">
<g id="Group 13921">
<path id="Union" fill-rule="evenodd" clip-rule="evenodd" d="M32 11.0867C32 20.3707 25.9449 28.569 17.0715 31.2993C16.5362 31.464 15.9638 31.464 15.4285 31.2993C6.55506 28.569 0.5 20.3707 0.5 11.0867V3.375C0.5 1.51104 2.01104 0 3.875 0H28.625C30.489 0 32 1.51104 32 3.375V11.0867Z" fill="#9EFF00"/>
<path id="Vector 2711" d="M12.7763 24.8658C11.4079 24.6237 11.4079 22.6262 12.7763 22.3842C17.7165 21.5102 21.6492 17.6942 22.7414 12.7213C22.7732 12.5763 22.804 12.4311 22.8352 12.286C23.1312 10.9108 25.0569 10.9023 25.3648 12.2748C25.4041 12.45 25.4425 12.6254 25.4829 12.8003C26.6226 17.7364 30.551 21.5079 35.4685 22.3778C36.8438 22.6212 36.8438 24.6288 35.4685 24.8722C30.5248 25.7467 26.5808 29.5539 25.4649 34.5287L25.3648 34.9752C25.0569 36.3477 23.1312 36.3392 22.8352 34.964L22.7527 34.5808C21.6767 29.5825 17.7337 25.7428 12.7763 24.8658Z" fill="black"/>
</g>
</svg>
