<svg width="25" height="24" viewBox="0 0 25 24" fill="none" xmlns="http://www.w3.org/2000/svg">
<g id="user-multiple-circle--close-geometric-human-multiple-person-up-user-circle">
<path id="Union" fillRule="evenodd" clipRule="evenodd" d="M12.0039 0.000244141C18.6313 0.000244141 24.0039 5.37283 24.0039 12.0002C24.0039 18.6277 18.6313 24.0002 12.0039 24.0002C5.37649 24.0002 0.00390625 18.6277 0.00390625 12.0002C0.00390625 5.37283 5.37649 0.000244141 12.0039 0.000244141Z" fill="#9EFF00"/>
<path id="Intersect" fillRule="evenodd" clipRule="evenodd" d="M15.0027 23.6217C14.0439 23.8685 13.0386 23.9997 12.0027 23.9997C7.69503 23.9997 3.91746 21.7299 1.80078 18.3211C3.24431 16.3045 5.25834 14.8922 7.83712 14.8922C12.2715 14.8922 14.6082 18.5465 14.9431 22.5576C14.9719 22.9017 14.995 23.2638 15.0027 23.6217ZM22.4196 17.9611C21.1339 20.203 19.1452 21.9902 16.7542 23.0223C16.803 22.8104 16.82 22.5886 16.8012 22.3635C16.6171 20.1591 15.8756 17.9161 14.4265 16.1788C14.3483 16.0852 14.2683 15.9932 14.1865 15.9031C15.0825 15.4504 16.0736 15.2136 17.0802 15.2136C18.181 15.2136 19.2634 15.4968 20.2231 16.036C20.6383 16.2692 21.0244 16.5468 21.3754 16.863L22.4196 17.9611ZM11.9638 9.40747C11.9638 7.28179 10.2406 5.55859 8.11494 5.55859C5.98926 5.55859 4.26606 7.28179 4.26606 9.40747C4.26606 11.5331 5.98926 13.2563 8.11494 13.2563C10.2406 13.2563 11.9638 11.5331 11.9638 9.40747ZM17.0464 7.3367C18.8074 7.3367 20.2351 8.76433 20.2351 10.5254C20.2351 12.2865 18.8074 13.7141 17.0464 13.7141C15.2853 13.7141 13.8577 12.2865 13.8577 10.5254C13.8577 8.76433 15.2853 7.3367 17.0464 7.3367Z" fill="#212121"/>
</g>
</svg>
