<svg xmlns="http://www.w3.org/2000/svg" width="18" height="18" viewBox="0 0 18 18" fill="none">
  <path d="M9.07786 1.94434C5.13971 1.94434 1.94653 5.13752 1.94653 9.07567C1.94653 13.0138 5.13971 16.207 9.07786 16.207C13.016 16.207 16.2092 13.0138 16.2092 9.07567C16.2092 5.13752 13.016 1.94434 9.07786 1.94434ZM12.158 6.74684L8.80566 11.3949C8.75881 11.4603 8.69704 11.5136 8.62548 11.5504C8.55392 11.5871 8.47463 11.6063 8.39418 11.6063C8.31373 11.6063 8.23444 11.5871 8.16288 11.5504C8.09132 11.5136 8.02955 11.4603 7.9827 11.3949L5.9977 8.64428C5.93721 8.55992 5.9977 8.44212 6.10117 8.44212H6.84773C7.0101 8.44212 7.1645 8.52012 7.26001 8.65384L8.39338 10.2265L10.8957 6.75639C10.9912 6.62427 11.144 6.54468 11.308 6.54468H12.0546C12.158 6.54468 12.2185 6.66248 12.158 6.74684Z" fill="#06B317"/>
</svg>