<svg xmlns="http://www.w3.org/2000/svg" width="38" height="38" viewBox="0 0 38 38" fill="none">
  <path d="M0 13.5715V29.1787C0 31.4273 1.82284 33.2501 4.07143 33.2501H33.9286C36.1772 33.2501 38 31.4273 38 29.1787V13.5715H0Z" fill="#9EFF00"/>
  <path fill-rule="evenodd" clip-rule="evenodd" d="M4.07143 4.75C1.82284 4.75 0 6.57284 0 8.82143V13.5714H38V8.82143C38 6.57284 36.1772 4.75 33.9286 4.75H4.07143ZM25.7857 23.4107C24.8488 23.4107 24.0893 24.1702 24.0893 25.1071C24.0893 26.0441 24.8488 26.8036 25.7857 26.8036H29.8571C30.7941 26.8036 31.5536 26.0441 31.5536 25.1071C31.5536 24.1702 30.7941 23.4107 29.8571 23.4107H25.7857Z" fill="#212121"/>
</svg>