<svg xmlns="http://www.w3.org/2000/svg" width="35" height="37" viewBox="0 0 35 37" fill="none">
  <path d="M17.5 36.0715C27.165 36.0715 35 28.2365 35 18.5715C35 8.90655 27.165 1.07153 17.5 1.07153C7.83502 1.07153 0 8.90655 0 18.5715C0 28.2365 7.83502 36.0715 17.5 36.0715Z" fill="#9EFF00"/>
  <path fill-rule="evenodd" clip-rule="evenodd" d="M17.4939 8.125C18.2828 8.125 18.9224 8.76459 18.9224 9.55357V11.2659C20.1166 11.3657 21.1808 11.9271 21.933 12.7675C22.3241 13.2045 22.6329 13.7187 22.8333 14.2858C23.0962 15.0297 22.7063 15.8459 21.9624 16.1088C21.2186 16.3717 20.4024 15.9818 20.1395 15.238C20.0655 15.0288 19.9509 14.8371 19.804 14.673C19.4913 14.3236 19.0415 14.1071 18.5392 14.1071H16.1204C15.3688 14.1071 14.7595 14.7164 14.7595 15.468C14.7595 16.1076 15.2048 16.6608 15.8296 16.7975L19.5123 17.6031C21.6033 18.0605 23.0928 19.913 23.0928 22.0524C23.0928 24.4375 21.2585 26.3964 18.9224 26.5912V28.3029C18.9224 29.0918 18.2828 29.7314 17.4939 29.7314C16.7049 29.7314 16.0653 29.0918 16.0653 28.3029V26.5905C14.2523 26.4366 12.7448 25.2208 12.1618 23.5712C11.8989 22.8274 12.2888 22.0112 13.0327 21.7483C13.7765 21.4853 14.5927 21.8752 14.8556 22.6191C15.0892 23.2799 15.7195 23.7499 16.4559 23.7499H17.4514C17.4655 23.7495 17.4797 23.7493 17.4939 23.7493C17.5081 23.7493 17.5222 23.7495 17.5363 23.7499H18.5392C19.4754 23.7499 20.2356 22.9899 20.2356 22.0524C20.2356 21.2547 19.68 20.5645 18.9017 20.3942L15.219 19.5886C13.2826 19.165 11.9023 17.4502 11.9023 15.468C11.9023 13.1569 13.7611 11.2798 16.0653 11.2504V9.55357C16.0653 8.76459 16.7049 8.125 17.4939 8.125Z" fill="#212121"/>
</svg>