<svg width="64" height="63" viewBox="0 0 64 63" fill="none" xmlns="http://www.w3.org/2000/svg">
<path fill-rule="evenodd" clip-rule="evenodd" d="M7.78031 0.158203H49.6809C53.5378 0.158203 56.6643 3.28479 56.6643 7.14164V35.0754C56.6643 35.3419 56.6494 35.6048 56.6204 35.8636C56.5224 35.6108 56.4411 35.3492 56.3779 35.0803C56.3557 34.9857 56.3339 34.8895 56.3057 34.765L56.2645 34.5836C54.2457 25.7322 41.6178 25.7874 39.6763 34.6561L39.583 35.0822C39.0674 37.3769 37.2204 39.1375 34.9009 39.541C32.8553 39.8969 31.2586 40.819 30.1106 42.0588H7.78031C3.92346 42.0588 0.796875 38.9322 0.796875 35.0754V7.14164C0.796875 3.28479 3.92346 0.158203 7.78031 0.158203Z" fill="#9EFF00"/>
<path fill-rule="evenodd" clip-rule="evenodd" d="M56.6646 7.48926L28.7305 21.4563L0.797119 7.48958V13.7784L27.4728 27.1162C28.2645 27.5121 29.1965 27.5121 29.9883 27.1162L56.6646 13.7781V7.48926Z" fill="#212121"/>
<path fill-rule="evenodd" clip-rule="evenodd" d="M51.4946 35.6707C50.6379 31.9146 45.2792 31.938 44.4554 35.7014L44.423 35.85L44.4228 35.8508C44.4011 35.9503 44.3808 36.0435 44.3592 36.1402C43.4145 40.3705 40.0126 43.6167 35.7393 44.3601C31.8212 45.0417 31.8213 50.6662 35.7393 51.3479C40.0275 52.0939 43.4383 55.3602 44.369 59.6122L44.4554 60.0065C45.2792 63.77 50.6378 63.7934 51.4946 60.0373L51.5994 59.5777C52.5656 55.3413 55.9809 52.0991 60.2618 51.3544C64.1872 50.6715 64.1872 45.0365 60.2618 44.3536C56.0036 43.6128 52.6019 40.401 51.615 36.1976C51.5876 36.0812 51.5623 35.9695 51.5349 35.8485L51.5349 35.8484L51.4946 35.6707Z" fill="#212121"/>
</svg>
